<svg width="24" height="24" viewBox="0 0 24 24" fill="none" xmlns="http://www.w3.org/2000/svg">
<path d="M12 0L14.4847 2.72711L18 1.6077L18.7882 5.21177L22.3923 6L21.2729 9.51534L24 12L21.2729 14.4847L22.3923 18L18.7882 18.7882L18 22.3923L14.4847 21.2729L12 24L9.51534 21.2729L6 22.3923L5.21177 18.7882L1.6077 18L2.72711 14.4847L0 12L2.72711 9.51534L1.6077 6L5.21177 5.21177L6 1.6077L9.51534 2.72711L12 0Z" fill="#673AB7"/>
<path d="M11.7228 18V8.97H9.72079V7.57H13.3608V18H11.7228Z" fill="#F3F0F9"/>
</svg>
