<svg width="191" height="31" viewBox="0 0 191 31" fill="none" xmlns="http://www.w3.org/2000/svg">
<path d="M0.8 30V1.2H12.96C13.24 1.2 13.6133 1.21333 14.08 1.24C14.56 1.25333 14.9867 1.29333 15.36 1.36C17.08 1.62667 18.4867 2.19333 19.58 3.06C20.6867 3.92666 21.5 5.02 22.02 6.34C22.54 7.64667 22.8 9.10667 22.8 10.72C22.8 12.3333 22.5333 13.8 22 15.12C21.48 16.4267 20.6667 17.5133 19.56 18.38C18.4667 19.2467 17.0667 19.8133 15.36 20.08C14.9867 20.1333 14.56 20.1733 14.08 20.2C13.6 20.2267 13.2267 20.24 12.96 20.24H6.24V30H0.8ZM6.24 15.16H12.72C13 15.16 13.3067 15.1467 13.64 15.12C13.9733 15.0933 14.28 15.04 14.56 14.96C15.2933 14.76 15.86 14.4267 16.26 13.96C16.66 13.48 16.9333 12.9533 17.08 12.38C17.24 11.7933 17.32 11.24 17.32 10.72C17.32 10.2 17.24 9.65333 17.08 9.08C16.9333 8.49333 16.66 7.96667 16.26 7.5C15.86 7.02 15.2933 6.68 14.56 6.48C14.28 6.4 13.9733 6.34667 13.64 6.32C13.3067 6.29333 13 6.28 12.72 6.28H6.24V15.16ZM26.8156 30V8.4H31.6156V13.68L31.0956 13C31.3756 12.2533 31.749 11.5733 32.2156 10.96C32.6823 10.3467 33.2556 9.84 33.9356 9.44C34.4556 9.12 35.0223 8.87333 35.6356 8.7C36.249 8.51333 36.8823 8.4 37.5356 8.36C38.189 8.30667 38.8423 8.32 39.4956 8.4V13.48C38.8956 13.2933 38.1956 13.2333 37.3956 13.3C36.609 13.3533 35.8956 13.5333 35.2556 13.84C34.6156 14.1333 34.0756 14.5267 33.6356 15.02C33.1956 15.5 32.8623 16.0733 32.6356 16.74C32.409 17.3933 32.2956 18.1333 32.2956 18.96V30H26.8156ZM43.7 5.4V0.599999H49.14V5.4H43.7ZM43.7 30V8.4H49.14V30H43.7ZM81.1359 30V17.24C81.1359 15.8133 80.7959 14.7067 80.1159 13.92C79.4493 13.12 78.5226 12.72 77.3359 12.72C76.5759 12.72 75.9159 12.9 75.3559 13.26C74.7959 13.6067 74.3559 14.1 74.0359 14.74C73.7293 15.3667 73.5759 16.0933 73.5759 16.92L71.2959 15.4C71.2959 13.92 71.6426 12.6133 72.3359 11.48C73.0426 10.3467 73.9826 9.46667 75.1559 8.84C76.3426 8.2 77.6559 7.88 79.0959 7.88C81.5626 7.88 83.4226 8.61333 84.6759 10.08C85.9426 11.5333 86.5759 13.44 86.5759 15.8V30H81.1359ZM55.0959 30V8.4H59.8959V15.56H60.5759V30H55.0959ZM68.1359 30V17.24C68.1359 15.8133 67.7959 14.7067 67.1159 13.92C66.4493 13.12 65.5226 12.72 64.3359 12.72C63.2026 12.72 62.2893 13.1133 61.5959 13.9C60.9159 14.6733 60.5759 15.68 60.5759 16.92L58.2959 15.32C58.2959 13.9067 58.6493 12.64 59.3559 11.52C60.0626 10.4 61.0093 9.51333 62.1959 8.86C63.3959 8.20667 64.7359 7.88 66.2159 7.88C67.9093 7.88 69.2959 8.24 70.3759 8.96C71.4693 9.68 72.2759 10.64 72.7959 11.84C73.3159 13.04 73.5759 14.36 73.5759 15.8V30H68.1359ZM101.426 30.6C99.2126 30.6 97.2593 30.1267 95.5659 29.18C93.8859 28.22 92.5659 26.9067 91.6059 25.24C90.6593 23.56 90.1859 21.64 90.1859 19.48C90.1859 17.12 90.6526 15.0667 91.5859 13.32C92.5193 11.5733 93.8059 10.22 95.4459 9.26C97.0859 8.28667 98.9726 7.8 101.106 7.8C103.373 7.8 105.299 8.33333 106.886 9.4C108.473 10.4667 109.646 11.9667 110.406 13.9C111.166 15.8333 111.433 18.1067 111.206 20.72H105.826V18.72C105.826 16.52 105.473 14.94 104.766 13.98C104.073 13.0067 102.933 12.52 101.346 12.52C99.4926 12.52 98.1259 13.0867 97.2459 14.22C96.3793 15.34 95.9459 17 95.9459 19.2C95.9459 21.2133 96.3793 22.7733 97.2459 23.88C98.1259 24.9733 99.4126 25.52 101.106 25.52C102.173 25.52 103.086 25.2867 103.846 24.82C104.606 24.3533 105.186 23.68 105.586 22.8L111.026 24.36C110.213 26.3333 108.926 27.8667 107.166 28.96C105.419 30.0533 103.506 30.6 101.426 30.6ZM94.2659 20.72V16.68H108.586V20.72H94.2659ZM124.482 30.6C122.495 30.6 120.755 30.1 119.262 29.1C117.769 28.1 116.602 26.74 115.762 25.02C114.935 23.3 114.522 21.36 114.522 19.2C114.522 17 114.942 15.0467 115.782 13.34C116.635 11.62 117.829 10.2667 119.362 9.28C120.895 8.29333 122.695 7.8 124.762 7.8C126.815 7.8 128.542 8.3 129.942 9.3C131.342 10.3 132.402 11.66 133.122 13.38C133.842 15.1 134.202 17.04 134.202 19.2C134.202 21.36 133.835 23.3 133.102 25.02C132.382 26.74 131.302 28.1 129.862 29.1C128.422 30.1 126.629 30.6 124.482 30.6ZM125.362 25.76C126.575 25.76 127.542 25.4867 128.262 24.94C128.995 24.3933 129.522 23.6267 129.842 22.64C130.162 21.6533 130.322 20.5067 130.322 19.2C130.322 17.8933 130.162 16.7467 129.842 15.76C129.522 14.7733 129.009 14.0067 128.302 13.46C127.609 12.9133 126.695 12.64 125.562 12.64C124.349 12.64 123.349 12.94 122.562 13.54C121.789 14.1267 121.215 14.92 120.842 15.92C120.469 16.9067 120.282 18 120.282 19.2C120.282 20.4133 120.462 21.52 120.822 22.52C121.182 23.5067 121.735 24.2933 122.482 24.88C123.229 25.4667 124.189 25.76 125.362 25.76ZM130.322 30V15.2H129.642V1.2H135.122V30H130.322ZM150.762 30.6C148.549 30.6 146.595 30.1267 144.902 29.18C143.222 28.22 141.902 26.9067 140.942 25.24C139.995 23.56 139.522 21.64 139.522 19.48C139.522 17.12 139.989 15.0667 140.922 13.32C141.855 11.5733 143.142 10.22 144.782 9.26C146.422 8.28667 148.309 7.8 150.442 7.8C152.709 7.8 154.635 8.33333 156.222 9.4C157.809 10.4667 158.982 11.9667 159.742 13.9C160.502 15.8333 160.769 18.1067 160.542 20.72H155.162V18.72C155.162 16.52 154.809 14.94 154.102 13.98C153.409 13.0067 152.269 12.52 150.682 12.52C148.829 12.52 147.462 13.0867 146.582 14.22C145.715 15.34 145.282 17 145.282 19.2C145.282 21.2133 145.715 22.7733 146.582 23.88C147.462 24.9733 148.749 25.52 150.442 25.52C151.509 25.52 152.422 25.2867 153.182 24.82C153.942 24.3533 154.522 23.68 154.922 22.8L160.362 24.36C159.549 26.3333 158.262 27.8667 156.502 28.96C154.755 30.0533 152.842 30.6 150.762 30.6ZM143.602 20.72V16.68H157.922V20.72H143.602ZM170.117 30L162.277 8.4H167.717L172.837 23.36L177.957 8.4H183.397L175.557 30H170.117Z" fill="white"/>
<path d="M184.688 30V24.56H190.128V30H184.688Z" fill="#673AB7"/>
</svg>
